<svg width="24" height="24" viewBox="0 0 24 24" fill="none" xmlns="http://www.w3.org/2000/svg">
<g clip-path="url(#clip0_61_720)">
<path d="M16.5827 1.74621C16.0007 1.16272 15.0483 1.16272 14.467 1.74621L14.1573 2.0567C13.5753 2.64019 13.5753 3.5949 14.1573 4.17761L14.182 4.20234C13.7163 4.50308 13.0106 4.96285 12.2321 5.48781C11.5196 4.60961 10.6474 3.7966 10.2417 3.43513C10.3452 2.95288 10.2132 2.42943 9.84193 2.0567L9.53219 1.74621C8.95021 1.16272 7.99776 1.16272 7.41651 1.74621L0.436482 8.74349C-0.145494 9.32698 -0.145494 10.2817 0.436482 10.8645L0.746229 11.1749C1.19846 11.6279 1.87193 11.7247 2.42393 11.4734C2.7134 11.8806 3.44838 12.8984 4.38135 14.0781C3.8676 14.6053 3.04562 15.5998 3.01114 16.6077C2.99464 17.1057 3.1694 17.555 3.51661 17.9052C4.59206 18.9919 7.80722 22.2064 7.80722 22.2064L7.90322 22.2874C7.94598 22.3174 8.49122 22.6916 9.37467 22.6916C10.1029 22.6916 11.0614 22.4306 12.1548 21.5202C12.3828 21.6859 12.5306 21.7894 12.5628 21.8111C12.6708 21.8779 13.4283 22.3249 14.2698 22.3249C14.5398 22.3249 14.8188 22.2784 15.088 22.1584C15.4472 21.9979 15.8927 21.6552 16.1425 20.9239C16.7695 20.699 17.5352 20.195 17.8554 19.2687C18.5762 19.0932 19.3427 18.5915 19.6096 17.6195C20.3004 17.5243 21.0938 17.1426 21.3803 16.1218C21.594 15.3569 21.3803 14.6998 21.0451 14.1951C21.5468 13.6484 22.1986 12.7357 22.3268 11.5994C22.665 11.5702 22.9957 11.433 23.2538 11.1742L23.5635 10.8637C24.1455 10.2802 24.1455 9.32551 23.5635 8.74275L16.5827 1.74621ZM20.8103 10.8472C20.9768 11.7959 20.4204 12.6397 19.9868 13.1279L15.9557 9.33903L15.4555 9.69526C14.4355 10.4198 13.1238 9.78376 13.1133 9.77926L12.6806 9.56101L12.3026 9.86247C12.2906 9.87222 11.0817 10.8247 9.4572 10.9695C9.32672 10.9815 9.21495 10.9852 9.11821 10.9852C8.71173 10.9852 8.58424 10.9042 8.58649 10.9125C8.54976 10.7798 8.70424 10.2683 9.24424 9.61503C9.85624 8.87554 13.1628 6.63536 15.2658 5.28915L20.8103 10.8472ZM5.83178 15.8353L4.7458 17.0157C4.68806 16.9573 4.63104 16.9003 4.58231 16.8507C4.5253 16.793 4.50659 16.7443 4.50958 16.6587C4.52158 16.283 4.92879 15.7025 5.33606 15.2533C5.49955 15.4483 5.66456 15.6418 5.83178 15.8353ZM8.03748 20.3157C7.87922 20.1567 7.70598 19.9842 7.52148 19.7989L8.58644 18.6409C8.77168 18.8074 8.95545 18.9694 9.13766 19.1269L8.03748 20.3157ZM6.46029 18.7369C6.23753 18.5142 6.0178 18.2929 5.80553 18.0807L6.84125 16.9542C6.98677 17.108 7.13297 17.2587 7.27771 17.4042C7.34819 17.4755 7.42097 17.5444 7.49219 17.615L6.46029 18.7369ZM9.27421 21.1879L10.2904 20.0899C10.5102 20.2677 10.7194 20.4326 10.9174 20.5879C10.1989 21.1076 9.64244 21.2074 9.27421 21.1879ZM19.9358 15.7168C19.8361 16.073 19.5113 16.1436 19.2811 16.1466L15.0977 12.1672L14.0635 13.2539L18.1734 17.1627C18.0759 17.5894 17.7804 17.7537 17.5097 17.8122L13.3818 13.8853L12.3476 14.972L16.4088 18.8351C16.2595 19.1884 15.9663 19.3766 15.7338 19.4726L11.6674 15.6043L10.6332 16.691L14.6793 20.5406C14.6306 20.6493 14.5653 20.7453 14.476 20.7859C14.2053 20.9104 13.6383 20.7071 13.3826 20.5549C13.3556 20.5354 10.5994 18.6079 8.339 16.3422C6.22558 14.2236 3.87215 10.9221 3.55638 10.4759L9.35968 4.65839C9.75264 5.01541 10.4299 5.66262 10.9901 6.33835C9.72414 7.22556 8.5212 8.13306 8.08768 8.65728C7.64971 9.18675 6.69274 10.5337 7.25596 11.6032C7.61072 12.2782 8.39444 12.5669 9.58989 12.4612C11.0966 12.3277 12.2943 11.67 12.8718 11.2927C13.4838 11.502 14.641 11.7562 15.7802 11.2305L19.7648 14.9751C19.9081 15.1746 20.0169 15.4288 19.9358 15.7168Z" fill="#DDCCBC"/>
</g>
<defs>
<clipPath id="clip0_61_720">
<rect width="24" height="24" fill="white"/>
</clipPath>
</defs>
</svg>
