<svg width="24" height="24" viewBox="0 0 24 24" fill="none" xmlns="http://www.w3.org/2000/svg">
<g clip-path="url(#clip0_61_709)">
<path d="M9.46423 6.8061C9.46423 7.45588 9.70864 8.04819 10.1104 8.4966H13.8894C14.2912 8.04819 14.5358 7.45588 14.5358 6.8061C14.5358 5.92766 14.0887 5.15366 13.41 4.69836L13.797 3.90796C13.9289 3.88696 14.049 3.80478 14.112 3.67602C14.2145 3.46644 14.1278 3.21317 13.9181 3.11066C13.7084 3.00782 13.4552 3.09453 13.3528 3.30444C13.2786 3.45589 13.3037 3.62938 13.4022 3.75317L13.0398 4.49366C12.7225 4.35078 12.3706 4.27063 12.0001 4.27063C11.6292 4.27063 11.2775 4.35078 10.96 4.49366L10.5979 3.75317C10.6962 3.62933 10.7214 3.45589 10.6473 3.30444C10.5447 3.09453 10.2915 3.00782 10.082 3.11066C9.87219 3.21317 9.78528 3.46644 9.88798 3.67602C9.95108 3.80478 10.0711 3.88696 10.203 3.90796L10.59 4.69836C9.911 5.15366 9.46423 5.92766 9.46423 6.8061Z" fill="#DDCCBC"/>
<path d="M8.55561 9.8653C9.52161 9.38239 9.2496 8.68461 8.80658 8.19514C7.65945 6.92708 3.67461 4.63274 1.59233 4.27072C0.99758 4.16689 -0.299404 4.23031 0.0627989 6.08216C0.187627 6.72013 1.06921 9.54331 3.00121 10.5098C4.93311 11.4753 7.73305 10.2766 8.55561 9.8653Z" fill="#DDCCBC"/>
<path d="M9.5379 9.93457C9.33193 10.1323 9.06896 10.2835 8.82568 10.405C8.32126 10.6573 6.53528 11.4799 4.72946 11.4799C4.56948 11.4799 4.4139 11.4721 4.26132 11.4592C3.25623 12.5259 2.90322 13.9694 3.44382 14.8965C4.00754 15.8626 5.66242 16.1389 6.86528 15.3794C8.39481 14.4136 9.34046 11.5956 9.50157 10.7911C9.54742 10.5614 9.63596 10.0896 9.5379 9.93457Z" fill="#DDCCBC"/>
<path d="M22.4077 4.27072C20.3254 4.63274 16.3406 6.92708 15.1934 8.1951C14.7506 8.68457 14.4784 9.38235 15.4442 9.86525C16.2668 10.2765 19.0669 11.4753 20.9989 10.5098C22.931 9.54327 23.8124 6.72008 23.9372 6.08211C24.2994 4.23032 23.0025 4.16689 22.4077 4.27072Z" fill="#DDCCBC"/>
<path d="M19.2704 11.4799C17.4648 11.4799 15.6788 10.6573 15.1743 10.405C14.9312 10.2835 14.6679 10.1324 14.4621 9.93457C14.3641 10.0896 14.4524 10.5614 14.4984 10.791C14.6594 11.5955 15.6053 14.4135 17.1347 15.3793C18.3374 16.1389 19.9924 15.8626 20.556 14.8964C21.0967 13.9693 20.7437 12.5259 19.7386 11.4592C19.5861 11.4721 19.4305 11.4799 19.2704 11.4799Z" fill="#DDCCBC"/>
<path d="M13.781 8.97949H10.2188C10.0854 8.97949 9.97717 9.08787 9.97717 9.22127V10.7607C9.97717 10.8941 10.0854 11.0025 10.2188 11.0025H13.781C13.9143 11.0025 14.0225 10.8941 14.0225 10.7607V9.22127C14.0225 9.08787 13.9143 8.97949 13.781 8.97949Z" fill="#DDCCBC"/>
<path d="M10.1883 11.5762C10.0315 11.7253 9.54479 12.4668 9.21643 13.4477H14.7836C14.4552 12.4668 13.9685 11.7253 13.8117 11.5762H10.1883Z" fill="#DDCCBC"/>
<path d="M8.92999 14.7148C8.88926 15.0824 8.88663 15.4609 8.94003 15.8374C8.97828 16.1067 9.03429 16.3555 9.10315 16.5868H14.8973C14.9663 16.3555 15.022 16.1068 15.0601 15.8374C15.1135 15.4609 15.1108 15.0825 15.0701 14.7148H8.92999Z" fill="#DDCCBC"/>
<path d="M11.7058 19.3289L11.9258 20.8134C11.9359 20.8817 11.9948 20.9324 12.064 20.9324C12.1334 20.9324 12.1923 20.8818 12.2023 20.8134L12.4295 19.2796C12.9061 19.0966 13.6868 18.6902 14.2849 17.8545H9.71545C10.3745 18.7746 11.2546 19.1751 11.7058 19.3289Z" fill="#DDCCBC"/>
</g>
<defs>
<clipPath id="clip0_61_709">
<rect width="24" height="24" fill="white"/>
</clipPath>
</defs>
</svg>
