<svg width="20" height="20" viewBox="0 0 20 20" fill="none" xmlns="http://www.w3.org/2000/svg">
<path d="M8.814 7.25365C9.34175 6.30688 9.60566 5.8335 10.0002 5.8335C10.3947 5.8335 10.6586 6.30688 11.1863 7.25365L11.3229 7.4986C11.4728 7.76764 11.5478 7.90215 11.6647 7.99091C11.7817 8.07967 11.9273 8.11262 12.2186 8.17851L12.4837 8.2385C13.5086 8.47041 14.021 8.58633 14.1429 8.97841C14.2648 9.37041 13.9155 9.77891 13.2168 10.596L13.036 10.8073C12.8375 11.0395 12.7382 11.1556 12.6936 11.2992C12.6489 11.4428 12.6639 11.5977 12.6939 11.9075L12.7212 12.1895C12.8269 13.2796 12.8797 13.8247 12.5605 14.0669C12.2413 14.3092 11.7616 14.0883 10.802 13.6465L10.5537 13.5322C10.281 13.4067 10.1447 13.3438 10.0002 13.3438C9.85566 13.3438 9.71933 13.4067 9.44658 13.5322L9.19833 13.6465C8.23878 14.0883 7.75899 14.3092 7.43981 14.0669C7.12063 13.8247 7.17345 13.2796 7.27908 12.1895L7.30641 11.9075C7.33642 11.5977 7.35143 11.4428 7.30677 11.2992C7.26211 11.1556 7.16284 11.0395 6.9643 10.8073L6.78354 10.596C6.08485 9.77891 5.73551 9.37041 5.85742 8.97841C5.97934 8.58633 6.49177 8.47041 7.51664 8.2385L7.78178 8.17851C8.07302 8.11262 8.21864 8.07967 8.33558 7.99091C8.4525 7.90215 8.5275 7.76764 8.67741 7.4986L8.814 7.25365Z" fill="#795548"/>
<path opacity="0.8" fill-rule="evenodd" clip-rule="evenodd" d="M9.99984 1.0415C10.345 1.0415 10.6248 1.32133 10.6248 1.6665V3.33317C10.6248 3.67835 10.345 3.95817 9.99984 3.95817C9.65467 3.95817 9.37484 3.67835 9.37484 3.33317V1.6665C9.37484 1.32133 9.65467 1.0415 9.99984 1.0415ZM1.0415 9.99984C1.0415 9.65467 1.32133 9.37484 1.6665 9.37484H3.33317C3.67835 9.37484 3.95817 9.65467 3.95817 9.99984C3.95817 10.345 3.67835 10.6248 3.33317 10.6248H1.6665C1.32133 10.6248 1.0415 10.345 1.0415 9.99984ZM16.0415 9.99984C16.0415 9.65467 16.3213 9.37484 16.6665 9.37484H18.3332C18.6783 9.37484 18.9582 9.65467 18.9582 9.99984C18.9582 10.345 18.6783 10.6248 18.3332 10.6248H16.6665C16.3213 10.6248 16.0415 10.345 16.0415 9.99984ZM9.99984 16.0415C10.345 16.0415 10.6248 16.3213 10.6248 16.6665V18.3332C10.6248 18.6783 10.345 18.9582 9.99984 18.9582C9.65467 18.9582 9.37484 18.6783 9.37484 18.3332V16.6665C9.37484 16.3213 9.65467 16.0415 9.99984 16.0415Z" fill="#795548"/>
<g opacity="0.5">
<path d="M15.4418 4.55806C15.6859 4.80213 15.6859 5.19786 15.4418 5.44194L15.1558 5.72799C14.9118 5.97206 14.516 5.97206 14.2719 5.72799C14.0278 5.48391 14.0278 5.08819 14.2719 4.84411L14.558 4.55806C14.8021 4.31398 15.1978 4.31398 15.4418 4.55806Z" fill="#795548"/>
<path d="M4.55806 4.55855C4.80213 4.31447 5.19786 4.31447 5.44194 4.55855L5.72799 4.8446C5.97206 5.08868 5.97206 5.4844 5.72799 5.72848C5.48391 5.97256 5.08819 5.97256 4.84411 5.72848L4.55806 5.44243C4.31398 5.19835 4.31398 4.80263 4.55806 4.55855Z" fill="#795548"/>
<path d="M5.72781 14.2719C5.97189 14.516 5.97189 14.9118 5.72781 15.1558L5.44194 15.4417C5.19786 15.6858 4.80213 15.6858 4.55806 15.4417C4.31398 15.1977 4.31398 14.8019 4.55806 14.5578L4.84393 14.2719C5.08801 14.0278 5.48373 14.0278 5.72781 14.2719Z" fill="#795548"/>
<path d="M14.2719 14.2724C14.516 14.0283 14.9118 14.0283 15.1558 14.2724L15.4417 14.5583C15.6858 14.8023 15.6858 15.1981 15.4417 15.4422C15.1976 15.6863 14.8018 15.6863 14.5578 15.4422L14.2719 15.1563C14.0278 14.9122 14.0278 14.5165 14.2719 14.2724Z" fill="#795548"/>
</g>
</svg>
